<svg width="71" height="20" viewBox="0 0 382 107" fill="none" xmlns="http://www.w3.org/2000/svg">
<path d="M143.572 27.975C138.852 23.7 132.144 21 125.436 21H80.9656V21.225C77.8111 21 78.2297 21.175 75 21.175C71.7703 21.175 72.5 21.0001 69.5375 21.225L25.8125 21.225C11.9 21.225 0.471878 31.35 0.471878 43.95V83.0999C0.471878 95.6999 11.9 105.825 25.8125 105.825C38.4828 105.825 48.9172 97.4999 50.9047 86.9249H100.592C102.58 97.7249 113.014 106.05 125.684 106.05C139.597 106.05 151.025 95.9249 151.025 83.3249V43.95C150.777 38.1 148.292 32.475 143.572 27.975ZM139.348 83.0999C139.348 90.0749 133.138 95.6999 125.188 95.6999C117.238 95.6999 111.027 90.0749 111.027 83.0999C111.027 79.4999 107.797 76.5749 103.822 76.5749H47.1781C43.2031 76.5749 39.9734 79.4999 39.9734 83.0999C39.9734 89.8499 33.5141 95.4749 25.8125 95.4749C17.8625 95.4749 11.6516 89.8499 11.6516 82.8749V43.95C11.6516 36.975 18.1109 31.35 25.8125 31.35H125.436C129.162 31.35 132.889 32.7 135.622 35.175C138.106 37.425 139.597 40.575 139.597 43.95V83.0999H139.348Z" fill="black"/>
<path d="M48.4203 55.475H42.9547V50.75C42.9547 48.05 40.4703 45.575 37.2406 45.575C34.0109 45.575 31.5266 47.825 31.5266 50.75V55.475H26.0609C23.0797 55.475 20.3469 57.725 20.3469 60.65C20.3469 63.575 22.8313 65.825 26.0609 65.825H31.5266V70.55C31.5266 73.25 34.0109 75.725 37.2406 75.725C40.4703 75.725 42.9547 73.475 42.9547 70.55V65.825H48.4203C51.4016 65.825 54.1344 63.575 54.1344 60.65C54.1344 57.725 51.4016 55.475 48.4203 55.475Z" fill="black"/>
<path d="M117.734 55.925C118.231 55.925 118.48 55.925 118.728 55.925C118.977 55.925 119.473 55.7 119.722 55.7C119.97 55.475 120.467 55.475 120.716 55.25C120.964 55.025 121.213 54.8 121.461 54.575C122.455 53.675 123.2 52.325 123.2 50.975C123.2 49.625 122.703 48.275 121.461 47.375C121.213 47.15 120.964 46.925 120.716 46.7C120.467 46.475 119.97 46.475 119.722 46.25C119.473 46.025 118.977 46.025 118.728 46.025C116.989 45.8 115.002 46.25 113.759 47.375C112.766 48.275 112.02 49.625 112.02 50.975C112.02 52.325 112.517 53.675 113.759 54.575C114.753 55.25 116.244 55.925 117.734 55.925Z" fill="black"/>
<path d="M110.778 57.05C110.53 56.825 110.281 56.6 110.033 56.375C109.784 56.15 109.288 56.15 109.039 55.925C108.791 55.7 108.294 55.7 108.045 55.7C106.306 55.475 104.319 55.925 103.077 57.05C102.083 57.95 101.338 59.3 101.338 60.65C101.338 62 101.834 63.35 103.077 64.25C103.573 64.7 104.319 65.15 104.816 65.375C105.561 65.6 106.306 65.825 107.052 65.825C107.548 65.825 107.797 65.825 108.045 65.825C108.542 65.825 108.791 65.6 109.039 65.6C109.288 65.6 109.784 65.375 110.033 65.15C110.281 64.925 110.53 64.7 110.778 64.475C111.772 63.575 112.517 62.225 112.517 60.875C112.517 59.3 111.772 57.95 110.778 57.05Z" fill="black"/>
<path d="M113.759 67.85C112.766 68.75 112.02 70.1 112.02 71.45C112.02 72.8 112.517 74.15 113.759 75.05C114.008 75.275 114.256 75.5 114.505 75.725C114.753 75.95 115.25 76.175 115.498 76.175C115.747 76.4 116.244 76.4 116.492 76.4C116.741 76.4 117.238 76.4 117.486 76.4C117.983 76.4 118.231 76.4 118.48 76.4C118.728 76.4 119.225 76.175 119.473 76.175C119.722 75.95 120.219 75.95 120.467 75.725C120.716 75.5 120.964 75.275 121.213 75.05C122.206 74.15 122.952 72.8 122.952 71.45C122.952 70.1 122.455 68.75 121.213 67.85C119.722 65.825 115.995 65.825 113.759 67.85Z" fill="black"/>
<path d="M133.634 58.625C133.386 58.4 133.386 57.95 133.138 57.725C132.889 57.5 132.641 57.275 132.392 57.05C131.15 55.925 129.163 55.25 127.423 55.7C127.175 55.7 126.678 55.925 126.43 55.925C126.181 55.925 125.684 56.15 125.436 56.375C125.188 56.6 124.939 56.825 124.691 57.05C124.442 57.275 124.194 57.5 123.945 57.725C123.697 57.95 123.448 58.4 123.448 58.625C123.2 58.85 123.2 59.3 123.2 59.525C123.2 59.75 123.2 60.2 123.2 60.425C123.2 61.775 123.697 63.125 124.939 64.025C125.933 64.925 127.423 65.6 128.914 65.6C130.405 65.6 131.895 65.15 132.889 64.025C133.883 63.125 134.628 61.775 134.628 60.425C134.628 60.2 134.628 59.75 134.628 59.525C133.883 59.3 133.883 59.075 133.634 58.625Z" fill="black"/>
<path d="M168.5 102V29H177.5V93.8H210.5V102H168.5ZM237.461 103C233.061 103 229.261 102.167 226.061 100.5C222.928 98.8333 220.494 96.4333 218.761 93.3C217.094 90.1 216.261 86.3333 216.261 82V49C216.261 44.6 217.094 40.8333 218.761 37.7C220.494 34.5667 222.928 32.1667 226.061 30.5C229.261 28.8333 233.061 28 237.461 28C241.861 28 245.628 28.8333 248.761 30.5C251.961 32.1667 254.394 34.5667 256.061 37.7C257.794 40.8333 258.661 44.5667 258.661 48.9V82C258.661 86.3333 257.794 90.1 256.061 93.3C254.394 96.4333 251.961 98.8333 248.761 100.5C245.628 102.167 241.861 103 237.461 103ZM237.461 94.9C241.394 94.9 244.394 93.8 246.461 91.6C248.594 89.3333 249.661 86.1333 249.661 82V49C249.661 44.8667 248.594 41.7 246.461 39.5C244.394 37.2333 241.394 36.1 237.461 36.1C233.594 36.1 230.594 37.2333 228.461 39.5C226.328 41.7 225.261 44.8667 225.261 49V82C225.261 86.1333 226.328 89.3333 228.461 91.6C230.594 93.8 233.594 94.9 237.461 94.9ZM288.322 103C283.922 103 280.089 102.167 276.822 100.5C273.622 98.8333 271.122 96.4333 269.322 93.3C267.589 90.1 266.722 86.3333 266.722 82V49C266.722 44.6 267.589 40.8333 269.322 37.7C271.122 34.5667 273.622 32.1667 276.822 30.5C280.089 28.8333 283.922 28 288.322 28C292.722 28 296.522 28.8667 299.722 30.6C302.922 32.2667 305.389 34.6667 307.122 37.8C308.855 40.9333 309.722 44.6667 309.722 49H300.722C300.722 44.8667 299.622 41.7 297.422 39.5C295.289 37.2333 292.255 36.1 288.322 36.1C284.389 36.1 281.289 37.2 279.022 39.4C276.822 41.6 275.722 44.7667 275.722 48.9V82C275.722 86.1333 276.822 89.3333 279.022 91.6C281.289 93.8667 284.389 95 288.322 95C292.255 95 295.289 93.8667 297.422 91.6C299.622 89.3333 300.722 86.1333 300.722 82V73H285.922V64.8H309.722V82C309.722 86.2667 308.855 90 307.122 93.2C305.389 96.3333 302.922 98.7667 299.722 100.5C296.522 102.167 292.722 103 288.322 103ZM338.383 103C333.983 103 330.183 102.167 326.983 100.5C323.849 98.8333 321.416 96.4333 319.683 93.3C318.016 90.1 317.183 86.3333 317.183 82V49C317.183 44.6 318.016 40.8333 319.683 37.7C321.416 34.5667 323.849 32.1667 326.983 30.5C330.183 28.8333 333.983 28 338.383 28C342.783 28 346.549 28.8333 349.683 30.5C352.883 32.1667 355.316 34.5667 356.983 37.7C358.716 40.8333 359.583 44.5667 359.583 48.9V82C359.583 86.3333 358.716 90.1 356.983 93.3C355.316 96.4333 352.883 98.8333 349.683 100.5C346.549 102.167 342.783 103 338.383 103ZM338.383 94.9C342.316 94.9 345.316 93.8 347.383 91.6C349.516 89.3333 350.583 86.1333 350.583 82V49C350.583 44.8667 349.516 41.7 347.383 39.5C345.316 37.2333 342.316 36.1 338.383 36.1C334.516 36.1 331.516 37.2333 329.383 39.5C327.249 41.7 326.183 44.8667 326.183 49V82C326.183 86.1333 327.249 89.3333 329.383 91.6C331.516 93.8 334.516 94.9 338.383 94.9Z" fill="#212529"/>
</svg>
