<svg width="260" height="147" viewBox="0 0 152 86" fill="none" xmlns="http://www.w3.org/2000/svg">
<path d="M143.572 6.975C138.852 2.7 132.144 0 125.436 0H80.9656V0.225025C77.8111 2.37226e-05 78.2297 0.175025 75 0.175025C71.7703 0.175025 72.5 5.80102e-05 69.5375 0.225025L25.8125 0.224999C11.9 0.224999 0.471878 10.35 0.471878 22.95V62.0999C0.471878 74.6999 11.9 84.8249 25.8125 84.8249C38.4828 84.8249 48.9172 76.4999 50.9047 65.9249H100.592C102.58 76.7249 113.014 85.0499 125.684 85.0499C139.597 85.0499 151.025 74.9249 151.025 62.3249V22.95C150.777 17.1 148.292 11.475 143.572 6.975ZM139.348 62.0999C139.348 69.0749 133.138 74.6999 125.188 74.6999C117.238 74.6999 111.027 69.0749 111.027 62.0999C111.027 58.4999 107.797 55.5749 103.822 55.5749H47.1781C43.2031 55.5749 39.9734 58.4999 39.9734 62.0999C39.9734 68.8499 33.5141 74.4749 25.8125 74.4749C17.8625 74.4749 11.6516 68.8499 11.6516 61.8749V22.95C11.6516 15.975 18.1109 10.35 25.8125 10.35H125.436C129.162 10.35 132.889 11.7 135.622 14.175C138.106 16.425 139.597 19.575 139.597 22.95V62.0999H139.348Z" fill="white"/>
<path d="M48.4203 34.475H42.9547V29.75C42.9547 27.05 40.4703 24.575 37.2406 24.575C34.0109 24.575 31.5266 26.825 31.5266 29.75V34.475H26.0609C23.0797 34.475 20.3469 36.725 20.3469 39.65C20.3469 42.575 22.8313 44.825 26.0609 44.825H31.5266V49.55C31.5266 52.25 34.0109 54.725 37.2406 54.725C40.4703 54.725 42.9547 52.475 42.9547 49.55V44.825H48.4203C51.4016 44.825 54.1344 42.575 54.1344 39.65C54.1344 36.725 51.4016 34.475 48.4203 34.475Z" fill="white"/>
<path d="M117.734 34.925C118.231 34.925 118.48 34.925 118.728 34.925C118.977 34.925 119.473 34.7 119.722 34.7C119.97 34.475 120.467 34.475 120.716 34.25C120.964 34.025 121.213 33.8 121.461 33.575C122.455 32.675 123.2 31.325 123.2 29.975C123.2 28.625 122.703 27.275 121.461 26.375C121.213 26.15 120.964 25.925 120.716 25.7C120.467 25.475 119.97 25.475 119.722 25.25C119.473 25.025 118.977 25.025 118.728 25.025C116.989 24.8 115.002 25.25 113.759 26.375C112.766 27.275 112.02 28.625 112.02 29.975C112.02 31.325 112.517 32.675 113.759 33.575C114.753 34.25 116.244 34.925 117.734 34.925Z" fill="white"/>
<path d="M110.778 36.05C110.53 35.825 110.281 35.6 110.033 35.375C109.784 35.15 109.288 35.15 109.039 34.925C108.791 34.7 108.294 34.7 108.045 34.7C106.306 34.475 104.319 34.925 103.077 36.05C102.083 36.95 101.338 38.3 101.338 39.65C101.338 41 101.834 42.35 103.077 43.25C103.573 43.7 104.319 44.15 104.816 44.375C105.561 44.6 106.306 44.825 107.052 44.825C107.548 44.825 107.797 44.825 108.045 44.825C108.542 44.825 108.791 44.6 109.039 44.6C109.288 44.6 109.784 44.375 110.033 44.15C110.281 43.925 110.53 43.7 110.778 43.475C111.772 42.575 112.517 41.225 112.517 39.875C112.517 38.3 111.772 36.95 110.778 36.05Z" fill="white"/>
<path d="M113.759 46.85C112.766 47.75 112.02 49.1 112.02 50.45C112.02 51.8 112.517 53.15 113.759 54.05C114.008 54.275 114.256 54.5 114.505 54.725C114.753 54.95 115.25 55.175 115.498 55.175C115.747 55.4 116.244 55.4 116.492 55.4C116.741 55.4 117.238 55.4 117.486 55.4C117.983 55.4 118.231 55.4 118.48 55.4C118.728 55.4 119.225 55.175 119.473 55.175C119.722 54.95 120.219 54.95 120.467 54.725C120.716 54.5 120.964 54.275 121.213 54.05C122.206 53.15 122.952 51.8 122.952 50.45C122.952 49.1 122.455 47.75 121.213 46.85C119.722 44.825 115.995 44.825 113.759 46.85Z" fill="white"/>
<path d="M133.634 37.625C133.386 37.4 133.386 36.95 133.138 36.725C132.889 36.5 132.641 36.275 132.392 36.05C131.15 34.925 129.163 34.25 127.423 34.7C127.175 34.7 126.678 34.925 126.43 34.925C126.181 34.925 125.684 35.15 125.436 35.375C125.188 35.6 124.939 35.825 124.691 36.05C124.442 36.275 124.194 36.5 123.945 36.725C123.697 36.95 123.448 37.4 123.448 37.625C123.2 37.85 123.2 38.3 123.2 38.525C123.2 38.75 123.2 39.2 123.2 39.425C123.2 40.775 123.697 42.125 124.939 43.025C125.933 43.925 127.423 44.6 128.914 44.6C130.405 44.6 131.895 44.15 132.889 43.025C133.883 42.125 134.628 40.775 134.628 39.425C134.628 39.2 134.628 38.75 134.628 38.525C133.883 38.3 133.883 38.075 133.634 37.625Z" fill="white"/>
</svg>
